<svg xmlns="http://www.w3.org/2000/svg" viewBox="0 0 83.83 88.39"><defs><style>.cls-1{fill:none;}.cls-1,.cls-3{stroke:#20aad0;stroke-miterlimit:10;stroke-width:1.98px;}.cls-2{fill:#20aad0;}.cls-3{fill:#fff;}</style></defs><title>Asset 5</title><g id="Layer_2" data-name="Layer 2"><g id="favicon_plain" data-name="favicon plain"><ellipse class="cls-1" cx="36.79" cy="52.27" rx="32.18" ry="36.03" transform="translate(-23.18 74.39) rotate(-75.1)"/><path class="cls-2" d="M72.19,65.68a25.49,25.49,0,0,0-2.92,1.66,34.12,34.12,0,0,0,2.34-5.81c4.57-17.17-7.32-35.24-26.55-40.36S6.54,25.84,2,43q-.12.44-.22.88S18,60.8,42.91,45c0,0,19.19.19,16.38,19.81,0,0-3.72,5.72-2.28,8.84,4.06.94,4.74-4,6.59-3.53,1.82,3-7.73,10.54-7.73,10.54a26.3,26.3,0,0,0,8.29-6.08,25.37,25.37,0,0,0,.24,3.69c.82,5.92,3,8.68,5.8,10.12C72.5,86.55,73.85,83,73,77.07c-.11-.76-.24-1.5-.4-2.2A25.65,25.65,0,0,0,76,73.52c5.38-2.6,7.34-5.5,7.86-8.62C81.38,63.28,77.58,63.08,72.19,65.68Z"/><path class="cls-3" d="M7,2.92,13.66,28s4.53,5.19,10.09,2.41,4.41-8.78,4.41-8.78Z"/></g></g></svg>